<svg width="20" height="19" viewBox="0 0 20 19" fill="none" xmlns="http://www.w3.org/2000/svg">
<path fill-rule="evenodd" clip-rule="evenodd" d="M19.6187 1.64344C19.3828 1.09823 18.8441 0.746593 18.25 0.75H1.75C1.15687 0.751169 0.620137 1.10173 0.380657 1.64436C0.141177 2.18699 0.243933 2.81978 0.642812 3.25875L0.650312 3.26719L7 10.0472V17.25C6.99987 17.8032 7.30418 18.3115 7.7918 18.5726C8.27942 18.8338 8.87119 18.8054 9.33156 18.4988L12.3316 16.4981C12.7492 16.2199 13.0001 15.7512 13 15.2494V10.0472L19.3506 3.26719L19.3581 3.25875C19.7615 2.8215 19.8641 2.18536 19.6187 1.64344ZM11.9069 9.02625C11.6463 9.30242 11.5008 9.66751 11.5 10.0472V15.2494L8.5 17.25V10.0472C8.50087 9.66615 8.35597 9.2992 8.095 9.02156L1.75 2.25H18.25L11.9069 9.02625Z" fill="#121417"/>
</svg>
